<svg width="100" height="100" viewBox="0 0 100 100" fill="none" xmlns="http://www.w3.org/2000/svg">
<g id="Foundation Makeup">
<path d="M0 50C0 22.3858 22.3858 0 50 0H95C97.7614 0 100 2.23858 100 5V50C100 77.6142 77.6142 100 50 100H5C2.23858 100 0 97.7614 0 95V50Z" fill="#406E75"/>
<path id="Vector" d="M42.8 17C42.3032 17 41.9 17.4044 41.9 17.9028V19.7083C41.9 20.2067 42.3032 20.6111 42.8 20.6111C43.7936 20.6111 44.6 21.42 44.6 22.4167V26.0278H41.9C40.4114 26.0278 39.2 27.2429 39.2 28.7361V33.25H36.5C34.0196 33.25 32 35.2758 32 37.7639V65.4467C32 73.3623 36.429 78.74 38.3316 80.6846C39.1488 81.5206 40.3056 82 41.5062 82H58.4937C59.6925 82 60.8476 81.5206 61.6648 80.6846C63.5692 78.74 68 73.3623 68 65.4467V37.7639C68 35.2758 65.9804 33.25 63.5 33.25H60.8V28.7361C60.8 27.2429 59.5886 26.0278 58.1 26.0278H55.4V20.6111C55.4 18.616 53.789 17 51.8 17H42.8ZM41.9 27.8333H58.1C58.5968 27.8333 59 28.2378 59 28.7361V33.25H41V28.7361C41 28.2378 41.4032 27.8333 41.9 27.8333ZM36.5 35.0556H63.5C64.9886 35.0556 66.2 36.2707 66.2 37.7639V65.4467C66.2 72.696 62.1312 77.6365 60.3816 79.4221C59.901 79.9133 59.2137 80.1944 58.4937 80.1944H41.5062C40.7863 80.1944 40.1008 79.9115 39.6184 79.4186C37.8688 77.6329 33.8 72.696 33.8 65.4467V37.7639C33.8 36.2707 35.0114 35.0556 36.5 35.0556Z" fill="white"/>
</g>
</svg>
