<svg width="100" height="100" viewBox="0 0 100 100" fill="none" xmlns="http://www.w3.org/2000/svg">
<g id="Discount">
<path d="M0 50C0 22.3858 22.3858 0 50 0H95C97.7614 0 100 2.23858 100 5V50C100 77.6142 77.6142 100 50 100H5C2.23858 100 0 97.7614 0 95V50Z" fill="#406E75"/>
<path id="Vector" d="M43.9062 21C39.9689 21 37 23.8011 37 27.5143C37 29.5105 37.8766 31.2245 39.282 32.4H28.0625C25.8216 32.4 24 34.2273 24 36.4714V44.6143C24 46.5801 25.3971 48.2249 27.25 48.603V70.6714C27.25 74.7119 30.5309 78 34.5625 78H65.4375C69.4691 78 72.75 74.7119 72.75 70.6714V48.603C74.6029 48.2249 76 46.5801 76 44.6143V36.4714C76 34.2273 74.1784 32.4 71.9375 32.4H60.718C62.1234 31.2245 63 29.5105 63 27.5143C63 23.8011 60.0311 21 56.0938 21C53.4385 21 51.1554 22.5397 50 24.7693C48.8446 22.5397 46.5615 21 43.9062 21ZM43.9062 22.6286C46.8183 22.6286 49.1875 25.0355 49.1875 27.9914V32.4H43.9062C40.8464 32.4 38.625 30.3447 38.625 27.5143C38.625 24.6838 40.8464 22.6286 43.9062 22.6286ZM56.0938 22.6286C59.1536 22.6286 61.375 24.6838 61.375 27.5143C61.375 30.3447 59.1536 32.4 56.0938 32.4H50.8125V27.9914C50.8125 25.0355 53.1817 22.6286 56.0938 22.6286ZM28.0625 34.0286H43.9062H56.0938H71.9375C73.2814 34.0286 74.375 35.1246 74.375 36.4714V44.6143C74.375 45.9611 73.2814 47.0571 71.9375 47.0571H28.0625C26.7186 47.0571 25.625 45.9611 25.625 44.6143V36.4714C25.625 35.1246 26.7186 34.0286 28.0625 34.0286ZM28.875 48.6857H71.125V70.6714C71.125 73.8146 68.5737 76.3714 65.4375 76.3714H34.5625C31.4262 76.3714 28.875 73.8146 28.875 70.6714V48.6857ZM46.75 56.1765C44.8 56.1765 43.5 57.8051 43.5 59.4336C43.5 62.6908 50 66.6 50 66.6C50 66.6 56.5 62.6908 56.5 59.4336C56.5 57.8051 55.2 56.1765 53.25 56.1765C51.625 56.1765 50 58.4571 50 58.4571C50 58.4571 48.375 56.1765 46.75 56.1765Z" fill="white"/>
</g>
</svg>
