<svg width="100" height="100" viewBox="0 0 100 100" fill="none" xmlns="http://www.w3.org/2000/svg">
<g id="Certificate">
<path d="M0 50C0 22.3858 22.3858 0 50 0H95C97.7614 0 100 2.23858 100 5V50C100 77.6142 77.6142 100 50 100H5C2.23858 100 0 97.7614 0 95V50Z" fill="#406E75"/>
<path id="Vector" d="M33.8461 18C31.723 18 30 19.7209 30 21.8414V66.4015C30 68.522 31.723 70.2429 33.8461 70.2429H38.6297C38.3681 69.7512 38.1705 69.2442 38.0167 68.7064H33.8461C32.5692 68.7064 31.5384 67.6769 31.5384 66.4015V21.8414C31.5384 20.566 32.5692 19.5366 33.8461 19.5366H66.1532C67.4301 19.5366 68.4609 20.566 68.4609 21.8414V66.4015C68.4609 67.6769 67.4301 68.7064 66.1532 68.7064H54.2904C54.1366 69.2442 53.939 69.7512 53.6775 70.2429H66.1532C68.2763 70.2429 69.9993 68.522 69.9993 66.4015V21.8414C69.9993 19.7209 68.2763 18 66.1532 18H33.8461ZM36.8569 33.3656C36.4415 33.3656 36.1537 33.7611 36.1537 34.1699C36.1537 34.5909 36.4538 34.9021 36.8569 34.9021H63.1094C63.5033 34.9021 63.8456 34.6016 63.8456 34.1699C63.8456 33.7596 63.5248 33.3656 63.1094 33.3656H36.8569ZM36.8629 41.0483C36.4444 41.0483 36.1537 41.4151 36.1537 41.8346C36.1537 42.2649 36.4567 42.5849 36.8629 42.5849H55.4112C55.8066 42.5849 56.1534 42.2772 56.1534 41.8346C56.1534 41.4029 55.8204 41.0483 55.4142 41.0483H36.8629ZM46.1536 59.487C42.3367 59.487 39.2306 62.6695 39.2306 66.5816C39.2306 68.2534 39.8214 69.7733 40.769 70.9872V80.2095C40.769 80.7934 41.3701 81.1712 41.8778 80.9208L46.1536 78.727L50.4293 80.9208C50.937 81.1728 51.5381 80.7934 51.5381 80.2095V70.9902C52.4858 69.7763 53.0765 68.2579 53.0765 66.5846C53.0765 62.671 49.9704 59.487 46.1536 59.487ZM46.1536 61.0626C49.1227 61.0626 51.5381 63.5392 51.5381 66.5816C51.5381 69.624 49.1227 72.1036 46.1536 72.1036C43.1844 72.1036 40.769 69.6255 40.769 66.5816C40.769 63.5392 43.1844 61.0626 46.1536 61.0626Z" fill="white"/>
</g>
</svg>
