<svg width="35" height="35" viewBox="0 0 35 35" fill="none" xmlns="http://www.w3.org/2000/svg">
<g id="Close">
<path id="Vector" d="M8.04995 7.69999C7.96035 7.69999 7.87074 7.73428 7.80249 7.80253C7.73459 7.87113 7.69995 7.96039 7.69995 8.04999C7.69995 8.13959 7.73389 8.22885 7.80249 8.29745L17.005 17.5L7.80249 26.7025C7.66599 26.839 7.66599 27.061 7.80249 27.1975C7.87109 27.2654 7.96035 27.3 8.04995 27.3C8.13955 27.3 8.22881 27.2661 8.29741 27.1975L17.5 17.9949L26.7025 27.1975C26.839 27.334 27.0609 27.334 27.1974 27.1975C27.3339 27.0603 27.3346 26.8397 27.1974 26.7025L17.9949 17.5L27.1974 8.29745C27.3339 8.16095 27.3339 7.93903 27.1974 7.80253C27.0602 7.66603 26.8397 7.66533 26.7025 7.80253L17.5 17.0051L8.29741 7.80253C8.22916 7.73428 8.13955 7.69999 8.04995 7.69999Z" fill="#4B6D74"/>
</g>
</svg>
