<svg width="30" height="30" viewBox="0 0 30 30" fill="none" xmlns="http://www.w3.org/2000/svg">
<g id="Upload to the Cloud">
<path id="Vector" d="M17.1 6C14.1804 6 11.542 7.68562 10.309 10.316C9.97483 10.2386 9.63725 10.2 9.30005 10.2C7.16285 10.2 5.3382 11.69 4.902 13.766C3.0126 14.6462 1.80005 16.54 1.80005 18.6328C1.80005 21.5926 4.20804 24 7.16724 24H22.3711C25.5853 24 28.2 21.3847 28.2 18.1711C28.2 15.8047 26.7443 13.6602 24.5579 12.7734C24.1895 8.95984 20.9496 6 17.1 6ZM17.1 6.6C21.5232 6.6 23.9691 10.476 23.9883 13.2012C25.8987 13.8156 27.6 15.7315 27.6 18.1711C27.6 21.0541 25.2541 23.4 22.3711 23.4H7.16724C4.53804 23.4 2.40005 21.262 2.40005 18.6328C2.40005 16.4614 3.8344 14.8065 5.4352 14.1879C5.587 12.7293 6.94085 10.8 9.30005 10.8C9.66545 10.8 10.2216 10.8754 10.65 11.0332C10.986 9.97 12.9378 6.6 17.1 6.6ZM15.3 12.2355C15.0903 12.2355 14.8806 12.3271 14.7375 12.5098L12.7536 15.0457C12.3864 15.5143 12.7209 16.2 13.3161 16.2H15V20.7C15 20.8656 15.1344 21 15.3 21C15.4656 21 15.6 20.8656 15.6 20.7V16.2H17.284C17.8798 16.2 18.2131 15.5143 17.8465 15.0457L15.8625 12.5098C15.7194 12.3271 15.5097 12.2355 15.3 12.2355Z" fill="#213235"/>
</g>
</svg>
