<svg width="100" height="100" viewBox="0 0 100 100" fill="none" xmlns="http://www.w3.org/2000/svg">
<g id="Discount">
<path d="M0 50C0 22.3858 22.3858 0 50 0H95C97.7614 0 100 2.23858 100 5V50C100 77.6142 77.6142 100 50 100H5C2.23858 100 0 97.7614 0 95V50Z" fill="#406E75"/>
<path id="Vector" d="M50 19C48.8279 19 47.6554 19.5054 46.8433 20.5175L43.7303 24.396C42.9365 25.3833 41.6388 25.8068 40.4211 25.4777L35.6394 24.1828C33.145 23.507 30.6632 25.3212 30.5309 27.9202L30.2787 32.9024C30.2134 34.1706 29.4113 35.2825 28.2334 35.7368L23.6074 37.5177C21.1943 38.4488 20.2496 41.3843 21.6586 43.5659L24.3577 47.7485C25.0446 48.8129 25.0446 50.1864 24.3577 51.2508L21.6586 55.4303C20.2496 57.6119 21.1943 60.5474 23.6074 61.4785L28.2334 63.2625C29.4113 63.7168 30.2134 64.8287 30.2787 66.0969L30.5309 71.0759C30.6632 73.675 33.1434 75.4892 35.6394 74.8133L40.4211 73.5184C41.6388 73.1877 42.935 73.6129 43.7272 74.6001L46.8433 78.4818C48.4691 80.5061 51.5325 80.5061 53.1567 78.4818L56.2697 74.6001C57.0635 73.6129 58.3612 73.1893 59.5789 73.5184L64.3606 74.8133C66.855 75.4892 69.3368 73.675 69.4691 71.0759L69.7213 66.0969C69.7866 64.8287 70.5887 63.7168 71.7666 63.2625L76.3926 61.4785C78.8058 60.5474 79.7504 57.6119 78.3414 55.4303L75.6423 51.2508C74.9554 50.1864 74.9554 48.8129 75.6423 47.7485L78.3414 43.5659C79.7504 41.3843 78.8058 38.4488 76.3926 37.5177L71.7666 35.7337C70.5887 35.2793 69.7866 34.1675 69.7213 32.8992L69.4691 27.9202C69.3368 25.3212 66.8566 23.507 64.3606 24.1828L59.5789 25.4777C58.3612 25.8084 57.065 25.3833 56.2728 24.396L53.1567 20.5175C52.3438 19.5054 51.1721 19 50 19ZM50 20.6273C50.7344 20.6273 51.4676 20.9463 51.9768 21.5804L55.0369 25.39C56.226 26.8717 58.1695 27.5054 59.9961 27.011L64.6937 25.7411C66.2573 25.3189 67.811 26.4555 67.8939 28.0833L68.1461 32.9745C68.2433 34.8768 69.4433 36.5454 71.2093 37.2261L75.7513 38.9757C77.2639 39.5584 77.8578 41.4002 76.9747 42.7664L74.3224 46.8706C73.2912 48.4679 73.2912 50.5282 74.3224 52.1255L76.9747 56.2298C77.8578 57.5959 77.2639 59.4378 75.7513 60.0205L71.2093 61.7701C69.4433 62.4507 68.2433 64.1194 68.1461 66.0217L67.8939 70.9129C67.8094 72.5423 66.2573 73.6788 64.6937 73.255L59.9961 71.9852C58.1695 71.4908 56.226 72.1245 55.0369 73.6062L51.9768 77.4157C50.9583 78.6839 49.0417 78.6839 48.0232 77.4157L44.9631 73.6062C43.774 72.1245 41.8305 71.4908 40.0039 71.9852L35.3063 73.255C33.7427 73.6772 32.189 72.5407 32.1061 70.9129L31.8539 66.0217C31.7567 64.1194 30.5567 62.4507 28.7907 61.7701L24.2487 60.0205C22.7361 59.4378 22.1422 57.5959 23.0253 56.2298L25.6776 52.1255C26.7088 50.5282 26.7088 48.4679 25.6776 46.8706L23.0253 42.7664C22.1422 41.4002 22.7361 39.5584 24.2487 38.9757L28.7907 37.2261C30.5567 36.5454 31.7567 34.8768 31.8539 32.9745L32.1061 28.0833C32.1906 26.4539 33.7427 25.3173 35.3063 25.7411L40.0039 27.011C41.8305 27.5054 43.774 26.8717 44.9631 25.39L48.0232 21.5804C48.5324 20.9463 49.2656 20.6273 50 20.6273ZM55.6097 36.6586C55.2991 36.6476 54.9963 36.8154 54.8564 37.1164L43.6992 61.1963C43.5127 61.5976 43.6836 62.0776 44.0821 62.2654C44.192 62.3168 44.3082 62.3407 44.4214 62.3407C44.7194 62.3407 45.0081 62.1704 45.1436 61.8798L56.3008 37.7999C56.4873 37.3986 56.3164 36.9185 55.9179 36.7307C55.8179 36.685 55.7133 36.6623 55.6097 36.6586ZM40.4367 38.2608C37.8004 38.2608 35.655 40.7812 35.655 43.8794C35.655 46.9777 37.8004 49.4981 40.4367 49.4981C43.073 49.4981 45.2183 46.9777 45.2183 43.8794C45.2183 40.7812 43.073 38.2608 40.4367 38.2608ZM40.4367 39.8661C42.1947 39.8661 43.6244 41.6673 43.6244 43.8794C43.6244 46.0916 42.1947 47.8928 40.4367 47.8928C38.6786 47.8928 37.2489 46.0916 37.2489 43.8794C37.2489 41.6673 38.6786 39.8661 40.4367 39.8661ZM59.5633 49.4981C56.9271 49.4981 54.7817 52.0184 54.7817 55.1167C54.7817 58.215 56.9271 60.7354 59.5633 60.7354C62.1996 60.7354 64.345 58.215 64.345 55.1167C64.345 52.0184 62.1996 49.4981 59.5633 49.4981ZM59.5633 51.1034C61.3214 51.1034 62.7511 52.9046 62.7511 55.1167C62.7511 57.3289 61.3214 59.13 59.5633 59.13C57.8053 59.13 56.3756 57.3289 56.3756 55.1167C56.3756 52.9046 57.8053 51.1034 59.5633 51.1034Z" fill="white"/>
</g>
</svg>
