<svg width="100" height="100" viewBox="0 0 100 100" fill="none" xmlns="http://www.w3.org/2000/svg">
<g id="Earth Care">
<path d="M0 50C0 22.3858 22.3858 0 50 0H95C97.7614 0 100 2.23858 100 5V50C100 77.6142 77.6142 100 50 100H5C2.23858 100 0 97.7614 0 95V50Z" fill="#406E75"/>
<path id="Vector" d="M49.2941 18C42.2156 18 36.4562 23.7242 36.4562 30.7595C36.4562 37.7948 42.2156 43.519 49.2941 43.519C56.3726 43.519 62.1321 37.7948 62.1321 30.7595C62.1321 23.7242 56.3726 18 49.2941 18ZM50.9835 19.7351C56.3758 20.5493 60.5273 25.1753 60.5273 30.7595C60.5273 36.3448 56.3742 40.971 50.9804 41.7839C53.0309 38.5203 54.1084 34.7429 54.1084 30.7595C54.1084 26.7769 53.0336 23.0006 50.9835 19.7351ZM47.1691 19.8005C45.1451 23.0503 44.0819 26.803 44.0819 30.7595C44.0819 34.7163 45.1452 38.4692 47.1691 41.7185C41.9897 40.7274 38.061 36.1931 38.061 30.7595C38.061 25.3259 41.9897 20.7916 47.1691 19.8005ZM49.0967 19.813C51.3184 22.9933 52.5036 26.7562 52.5036 30.7564C52.5036 34.7583 51.3179 38.5254 49.0935 41.706C46.8684 38.5256 45.6866 34.7611 45.6866 30.7595C45.6866 26.7582 46.8738 22.9939 49.0967 19.813ZM74.6628 39.2669C74.3043 39.2671 73.9486 39.2974 73.5972 39.3572C71.7999 39.6602 70.1458 40.7258 69.1653 42.41L61.7152 54.9483C61.0958 52.4188 58.7605 50.6962 55.7131 50.6962H47.8054C25.9905 44.2862 18.1148 68.5556 18.0362 68.8012C17.9287 69.1457 18.0667 69.5179 18.3716 69.7108L36.0237 80.8754C36.1537 80.9567 36.3054 81 36.4562 81C36.5236 81 36.5926 80.9926 36.6568 80.9751C36.8718 80.9177 37.0555 80.774 37.1614 80.5795L41.2422 73.0534H56.1582C62.1117 73.0534 67.6797 69.8804 70.6886 64.7734L80.1446 48.7212C80.9935 47.2619 81.2206 45.5632 80.7809 43.9364C80.3412 42.3096 79.292 40.9501 77.8253 40.1079C76.8287 39.5374 75.7383 39.2662 74.6628 39.2669ZM74.5845 40.8618C75.412 40.8487 76.2538 41.0508 77.0229 41.4911C78.1189 42.121 78.9021 43.1354 79.2294 44.3507C79.5568 45.5661 79.3916 46.8345 78.7593 47.9206L69.3032 63.9666C66.5816 68.5871 61.5437 71.4553 56.1582 71.4553H40.7627C40.469 71.4553 40.1987 71.6175 40.0575 71.8758L36.1585 79.0686L19.7694 68.7015C20.3584 67.1034 22.2678 62.4455 25.8624 58.3625C31.6684 51.7706 38.9331 49.7129 47.4575 52.2569C47.5329 52.2792 47.6108 52.2911 47.6894 52.2911H55.7131C58.3978 52.2911 60.2734 53.9458 60.2734 56.3159C60.2734 56.9363 60.2334 57.5559 59.8691 58.079C59.5097 58.5958 59.1554 59.0865 58.6499 59.4279C57.8074 59.9957 56.7417 60.2658 55.7131 60.2658H42.8752C42.4323 60.2658 42.0728 60.6231 42.0728 61.0633C42.0728 61.5035 42.4323 61.8608 42.8752 61.8608H55.7131C58.2791 61.8608 60.3388 60.6569 61.2952 58.7893C61.3097 58.7669 70.5475 43.2137 70.5475 43.2137C71.2632 41.9824 72.457 41.1947 73.7633 40.9459C74.0329 40.8945 74.3086 40.8662 74.5845 40.8618Z" fill="white"/>
</g>
</svg>
