<svg width="100" height="100" viewBox="0 0 100 100" fill="none" xmlns="http://www.w3.org/2000/svg">
<g id="In Transit">
<path d="M0 50C0 22.3858 22.3858 0 50 0H95C97.7614 0 100 2.23858 100 5V50C100 77.6142 77.6142 100 50 100H5C2.23858 100 0 97.7614 0 95V50Z" fill="#406E75"/>
<path id="Vector" d="M17.7185 26C17.3219 26 17 26.3258 17 26.7273C17 27.1287 17.3219 27.4545 17.7185 27.4545H57.1344C57.9262 27.4545 58.5714 28.1076 58.5714 28.9091V68.1818H44.1286C43.7771 65.718 41.7036 63.8182 39.1721 63.8182C36.6407 63.8182 34.5672 65.718 34.2157 68.1818H27.1122C26.2356 68.1818 25.5208 67.4583 25.5208 66.571V39.8182C25.5208 39.4167 25.199 39.0909 24.8023 39.0909C24.4057 39.0909 24.0839 39.4167 24.0839 39.8182V66.571C24.0839 68.2612 25.4424 69.6364 27.1122 69.6364H34.2157C34.5672 72.1002 36.6407 74 39.1721 74C41.7036 74 43.7771 72.1002 44.1286 69.6364H65.8292C66.1807 72.1002 68.2543 74 70.7857 74C73.3171 74 75.3906 72.1002 75.7421 69.6364H80.025C81.666 69.6364 83 68.2861 83 66.625V52.9091L78.9248 38.3665C78.5613 37.0807 77.3841 36.1818 76.0621 36.1818H60.0083V28.9091C60.0083 27.3047 58.7194 26 57.1344 26H17.7185ZM21.9284 30.3636C21.5318 30.3636 21.2099 30.6895 21.2099 31.0909C21.2099 31.4924 21.5318 31.8182 21.9284 31.8182H30.5503C30.9469 31.8182 31.2688 31.4924 31.2688 31.0909C31.2688 30.6895 30.9469 30.3636 30.5503 30.3636H21.9284ZM20.4914 34.7273C20.0948 34.7273 19.7729 35.0531 19.7729 35.4545C19.7729 35.856 20.0948 36.1818 20.4914 36.1818H26.2393C26.6359 36.1818 26.9578 35.856 26.9578 35.4545C26.9578 35.0531 26.6359 34.7273 26.2393 34.7273H20.4914ZM60.0083 37.6364H76.0621C76.7461 37.6364 77.3529 38.1009 77.5412 38.767L81.563 53.0114V66.625C81.563 67.4846 80.8743 68.1818 80.025 68.1818H75.7421C75.3906 65.718 73.3171 63.8182 70.7857 63.8182C68.2543 63.8182 66.1807 65.718 65.8292 68.1818H60.0083V37.6364ZM39.1721 65.2727C41.1566 65.2727 42.7646 66.9004 42.7646 68.9091C42.7646 70.9178 41.1566 72.5455 39.1721 72.5455C37.1877 72.5455 35.5797 70.9178 35.5797 68.9091C35.5797 66.9004 37.1877 65.2727 39.1721 65.2727ZM70.7857 65.2727C72.7701 65.2727 74.3781 66.9004 74.3781 68.9091C74.3781 70.9178 72.7701 72.5455 70.7857 72.5455C68.8012 72.5455 67.1932 70.9178 67.1932 68.9091C67.1932 66.9004 68.8012 65.2727 70.7857 65.2727Z" fill="white"/>
</g>
</svg>
