<svg width="25" height="25" viewBox="0 0 25 25" fill="none" xmlns="http://www.w3.org/2000/svg">
<g id="Hair Brush">
<path id="Vector" d="M18.5293 4.20117C18.4331 4.21859 18.3539 4.29073 18.3311 4.3916C18.3016 4.5261 18.3855 4.65993 18.5205 4.69043C19.1145 4.82393 19.6172 5.09273 20.0147 5.49023C21.6327 7.10773 20.9981 10.3754 18.6006 12.7734C16.2031 15.1709 12.9364 15.8075 11.3184 14.1885C10.8624 13.7325 10.5767 13.1425 10.4697 12.4365C10.4492 12.3 10.3206 12.2085 10.1856 12.2275C10.097 12.2408 10.0301 12.3013 9.99708 12.3779L9.99317 12.376C9.55317 13.4025 8.75654 14.4085 8.20704 14.958C7.53454 15.63 6.89009 16.0529 6.26759 16.4619C5.67509 16.8514 5.06247 17.2549 4.45997 17.8574C3.99747 18.3199 3.68786 18.9396 3.61036 19.5586C3.52486 20.2451 3.72527 20.8713 4.17677 21.3223C4.58627 21.7323 5.10048 21.9072 5.62598 21.9072C6.35998 21.9072 7.11561 21.5641 7.64161 21.0381C8.24411 20.4361 8.64664 19.8235 9.03614 19.2305C9.44514 18.608 9.86852 17.9635 10.541 17.291C11.1225 16.7096 12.0787 15.9476 13.0322 15.5273C13.2465 15.5575 13.4654 15.5752 13.6904 15.5752C15.3919 15.5752 17.3611 14.7219 18.9551 13.1279C21.5476 10.5354 22.1821 6.9507 20.3691 5.1377C19.9041 4.67219 19.3189 4.35812 18.6299 4.20312C18.5956 4.19562 18.5614 4.19537 18.5293 4.20117ZM16.0274 4.30957C15.8995 4.30957 15.7716 4.3583 15.6738 4.45605C15.4783 4.65155 15.4783 4.96809 15.6738 5.16309L16.7744 6.2627C16.8719 6.3602 16.9999 6.40918 17.1279 6.40918C17.2559 6.40918 17.384 6.3602 17.4815 6.2627C17.677 6.0672 17.677 5.75066 17.4815 5.55566L16.3809 4.45605C16.2831 4.3583 16.1552 4.30957 16.0274 4.30957ZM13.3438 5.05273C13.2159 5.05273 13.088 5.10147 12.9902 5.19922C12.7947 5.39472 12.7947 5.71075 12.9902 5.90625L14.5459 7.46191C14.6434 7.55941 14.7714 7.6084 14.8994 7.6084C15.0274 7.6084 15.1554 7.55941 15.2529 7.46191C15.4484 7.26641 15.4484 6.95038 15.2529 6.75488L13.6973 5.19922C13.5995 5.10147 13.4716 5.05273 13.3438 5.05273ZM11.3633 7.03223C11.2354 7.03223 11.1075 7.08096 11.0098 7.17871C10.8143 7.37421 10.8143 7.69024 11.0098 7.88574L12.5654 9.44141C12.6629 9.53891 12.791 9.58789 12.919 9.58789C13.047 9.58789 13.175 9.53941 13.2725 9.44141C13.468 9.24591 13.468 8.92987 13.2725 8.73438L11.7168 7.17871C11.6191 7.08096 11.4912 7.03223 11.3633 7.03223ZM17.7979 7.80957C17.67 7.80957 17.5421 7.8583 17.4443 7.95605C17.2488 8.15155 17.2488 8.46759 17.4443 8.66309L18.2217 9.44141C18.3192 9.53891 18.4472 9.58789 18.5752 9.58789C18.7032 9.58789 18.8312 9.53941 18.9287 9.44141C19.1242 9.24591 19.1242 8.92987 18.9287 8.73438L18.1514 7.95605C18.0536 7.8583 17.9257 7.80957 17.7979 7.80957ZM15.7471 9.43652C15.6192 9.43652 15.4913 9.48526 15.3936 9.58301C15.1981 9.77851 15.1981 10.095 15.3936 10.29L17.0195 11.916C17.117 12.0135 17.2451 12.0625 17.3731 12.0625C17.5011 12.0625 17.6291 12.0135 17.7266 11.916C17.9221 11.7205 17.9221 11.404 17.7266 11.209L16.1006 9.58301C16.0028 9.48526 15.875 9.43652 15.7471 9.43652ZM10.5518 9.64648C10.4239 9.64648 10.296 9.6962 10.1982 9.79395C10.0027 9.98945 10.0027 10.3055 10.1982 10.501L11.2969 11.5986C11.3944 11.6961 11.5224 11.7451 11.6504 11.7451C11.7784 11.7451 11.9064 11.6966 12.0039 11.5986C12.1994 11.4031 12.1994 11.0871 12.0039 10.8916L10.9053 9.79395C10.8075 9.6962 10.6796 9.64648 10.5518 9.64648ZM14.1211 11.4863C13.9932 11.4863 13.8653 11.5351 13.7676 11.6328C13.5721 11.8283 13.5721 12.1443 13.7676 12.3398L14.5459 13.1182C14.6434 13.2157 14.7714 13.2646 14.8994 13.2646C15.0274 13.2646 15.1554 13.2162 15.2529 13.1182C15.4484 12.9227 15.4484 12.6066 15.2529 12.4111L14.4746 11.6328C14.3769 11.5351 14.249 11.4863 14.1211 11.4863ZM10.1455 13.1914C10.3206 13.7104 10.5946 14.1717 10.9649 14.542C11.3352 14.9126 11.7814 15.1775 12.2764 15.3477C11.2529 15.9177 10.4405 16.6831 10.1865 16.9375C9.47753 17.646 9.04117 18.3121 8.61817 18.9561C8.22517 19.5541 7.85362 20.1195 7.28712 20.6855C6.85262 21.1195 6.23023 21.4072 5.63673 21.4092C5.23123 21.4102 4.83978 21.2778 4.53028 20.9678C4.19078 20.6288 4.03995 20.1496 4.10645 19.6201C4.16995 19.1091 4.42798 18.5964 4.81348 18.2109C5.37948 17.6449 5.94498 17.2729 6.54298 16.8799C7.18698 16.4574 7.85205 16.02 8.56055 15.3115C9.03016 14.8415 9.66932 14.0531 10.1455 13.1914Z" fill="#213235"/>
</g>
</svg>
