<svg width="25" height="25" viewBox="0 0 25 25" fill="none" xmlns="http://www.w3.org/2000/svg">
<g id="Wedding Gift">
<path id="Vector" d="M10.625 2.5C9.4135 2.5 8.5 3.36 8.5 4.5C8.5 5.11288 8.76974 5.6391 9.20215 6H5.75C5.0605 6 4.5 6.561 4.5 7.25V9.75C4.5 10.3535 4.92987 10.8585 5.5 10.9746V17.75C5.5 18.9905 6.5095 20 7.75 20H17.25C18.4905 20 19.5 18.9905 19.5 17.75V10.9746C20.0701 10.8585 20.5 10.3535 20.5 9.75V7.25C20.5 6.561 19.9395 6 19.25 6H15.7979C16.2303 5.6391 16.5 5.11288 16.5 4.5C16.5 3.36 15.5865 2.5 14.375 2.5C13.558 2.5 12.8555 2.97273 12.5 3.65723C12.1445 2.97273 11.442 2.5 10.625 2.5ZM10.625 3C11.521 3 12.25 3.73898 12.25 4.64648V6H10.625C9.6835 6 9 5.369 9 4.5C9 3.631 9.6835 3 10.625 3ZM14.375 3C15.3165 3 16 3.631 16 4.5C16 5.369 15.3165 6 14.375 6H12.75V4.64648C12.75 3.73898 13.479 3 14.375 3ZM5.75 6.5H10.625H14.375H19.25C19.6635 6.5 20 6.8365 20 7.25V9.75C20 10.1635 19.6635 10.5 19.25 10.5H5.75C5.3365 10.5 5 10.1635 5 9.75V7.25C5 6.8365 5.3365 6.5 5.75 6.5ZM6 11H19V17.75C19 18.715 18.215 19.5 17.25 19.5H7.75C6.785 19.5 6 18.715 6 17.75V11ZM11.5 13.2998C10.9 13.2998 10.5 13.7998 10.5 14.2998C10.5 15.2998 12.5 16.5 12.5 16.5C12.5 16.5 14.5 15.2998 14.5 14.2998C14.5 13.7998 14.1 13.2998 13.5 13.2998C13 13.2998 12.5 14 12.5 14C12.5 14 12 13.2998 11.5 13.2998Z" fill="#213235"/>
</g>
</svg>
