<svg width="25" height="25" viewBox="0 0 25 25" fill="none" xmlns="http://www.w3.org/2000/svg">
<g id="Pacifier">
<path id="Vector" d="M16.6436 3.53418C15.433 3.54568 14.2267 3.97207 13.3555 4.80957C12.427 5.70207 11.9024 6.90341 11.8799 8.19141C11.8683 8.86381 11.65 9.52038 11.2549 10.0947C10.5289 9.55064 9.80846 9.1009 9.12402 8.76758C7.36502 7.91058 5.83904 7.78596 5.04004 8.58496C4.34004 9.28496 4.34478 10.5362 4.92578 12.0107C5.19653 12.6982 5.59761 13.4344 6.10547 14.1855C4.59578 14.6668 3.5 16.0793 3.5 17.75C3.5 19.82 5.18 21.5 7.25 21.5C8.92127 21.5 10.338 20.4034 10.8193 18.8887C11.517 19.3572 12.2127 19.742 12.8799 20.0146C13.6349 20.3246 14.3154 20.4805 14.9004 20.4805C15.5254 20.4805 16.0346 20.3004 16.3896 19.9404C17.0846 19.2454 17.1098 17.9998 16.4648 16.4248C16.1102 15.5522 15.5666 14.6365 14.8867 13.7256C15.4783 13.3291 16.1413 13.1049 16.8154 13.0879C18.0529 13.0564 19.2158 12.5576 20.0908 11.6826C21.0243 10.7496 21.5245 9.50898 21.499 8.18848C21.474 6.86898 20.9256 5.64607 19.9551 4.74707C19.0686 3.92557 17.8541 3.52268 16.6436 3.53418ZM16.6934 4.02734C17.7629 4.02734 18.8322 4.38876 19.6152 5.11426C20.4857 5.92026 20.9765 7.01574 20.999 8.19824C21.022 9.38124 20.5738 10.4926 19.7373 11.3291C18.9533 12.1126 17.9118 12.5599 16.8018 12.5889C15.7418 12.6159 14.7072 13.0814 13.8887 13.8994L12.9404 14.8477C12.7964 14.9912 12.5112 15.0081 12.1582 14.8936C11.7427 14.7586 11.2959 14.4658 10.8994 14.0693C10.5029 13.6728 10.2102 13.2251 10.0752 12.8096C9.9602 12.4566 9.97612 12.1723 10.1201 12.0283L11.1494 10.999C11.9249 10.2235 12.3614 9.23017 12.3789 8.20117C12.3989 7.04717 12.8692 5.9709 13.7012 5.1709C14.4932 4.4094 15.5934 4.02734 16.6934 4.02734ZM6.53027 8.54492C7.18527 8.54492 8.0016 8.78132 8.8916 9.21582C9.54672 9.53588 10.2422 9.96755 10.9414 10.4863C10.8937 10.5395 10.848 10.5934 10.7969 10.6445L9.76758 11.6729C9.48108 11.9594 9.4357 12.422 9.5957 12.9385C9.7442 13.4185 10.0704 13.9454 10.5469 14.4219C10.9979 14.8734 11.5154 15.2092 12.0049 15.3682C12.2109 15.4357 12.4041 15.4687 12.5811 15.4687C12.8721 15.4687 13.1174 15.3777 13.2949 15.2002L14.2432 14.252C14.3224 14.1728 14.4048 14.099 14.4883 14.0273C15.1423 14.9027 15.6654 15.7827 16.0049 16.6152C16.2899 17.3052 16.4297 17.9304 16.4297 18.4404C16.4297 18.9354 16.3 19.325 16.04 19.585C15.505 20.115 14.4253 20.1048 13.0703 19.5498C11.6253 18.9598 10.03 17.8396 8.58496 16.3896C7.08796 14.8931 5.97463 13.2553 5.41113 11.8643C4.88863 10.5738 4.83853 9.49593 5.39453 8.94043C5.65953 8.67043 6.05527 8.54492 6.53027 8.54492ZM6.40723 14.6143C6.92493 15.3258 7.53427 16.0451 8.23535 16.7451C8.92815 17.4402 9.6554 18.0587 10.3867 18.5879C10.019 19.9739 8.74827 21 7.25 21C5.46 21 4 19.54 4 17.75C4 16.2517 5.02179 14.9856 6.40723 14.6143Z" fill="#213235"/>
</g>
</svg>
