<svg width="25" height="25" viewBox="0 0 25 25" fill="none" xmlns="http://www.w3.org/2000/svg">
<g id="Tube">
<path id="Vector" d="M7.2998 2.65039C6.7203 2.65039 6.25 3.1212 6.25 3.7002V6.5C6.25 11.725 7.4924 15.6841 8.2334 17.5791C8.44831 18.1291 8.90142 18.5257 9.4502 18.6787V21.3496C9.4502 22.0386 10.0107 22.5996 10.7002 22.5996H14.2998C14.9893 22.5996 15.5498 22.0391 15.5498 21.3496V18.6787C16.0986 18.5257 16.5517 18.1291 16.7666 17.5791C17.5076 15.6841 18.75 11.725 18.75 6.5V3.7002C18.75 3.1212 18.2792 2.65039 17.7002 2.65039H7.2998ZM7.2998 3.15039H17.7002C18.0037 3.15039 18.25 3.3972 18.25 3.7002V5.84961H6.75V3.7002C6.75 3.3972 6.9968 3.15039 7.2998 3.15039ZM6.75 6.34961H18.25V6.5C18.25 11.6435 17.0298 15.5355 16.3018 17.3975C16.0988 17.9155 15.6059 18.25 15.0459 18.25H9.9541C9.3941 18.25 8.90074 17.9155 8.69824 17.3975C7.97024 15.5355 6.75 11.6435 6.75 6.5V6.34961ZM11 9.2998C10.724 9.2998 10.5 9.5238 10.5 9.7998V11.5996C10.5 11.8756 10.724 12.0996 11 12.0996H14C14.276 12.0996 14.5 11.8756 14.5 11.5996V9.7998C14.5 9.5238 14.276 9.2998 14 9.2998H11ZM9.9502 18.75C9.95151 18.75 9.95279 18.75 9.9541 18.75H15.0459C15.0472 18.75 15.0485 18.75 15.0498 18.75V21.3496C15.0498 21.7631 14.7133 22.0996 14.2998 22.0996H10.7002C10.2867 22.0996 9.9502 21.7631 9.9502 21.3496V18.75Z" fill="#213235"/>
</g>
</svg>
