<svg width="25" height="25" viewBox="0 0 25 25" fill="none" xmlns="http://www.w3.org/2000/svg">
<g id="Makeup Brush">
<path id="Vector" d="M20.579 2.54004C20.1007 2.52917 19.6179 2.6962 19.2372 3.04395L7.44423 13.8115C7.27272 13.8751 4.97163 14.7331 3.85926 15.2891C3.22926 15.6041 2.72933 16.3801 2.58583 17.2656C2.46533 18.0071 2.48925 19.4767 4.00575 20.9932C5.20375 22.1912 6.37315 22.459 7.17665 22.459C7.39015 22.459 7.57776 22.4396 7.73426 22.4141C8.61976 22.2706 9.39583 21.7706 9.71083 21.1406C10.2668 20.0283 11.1243 17.7272 11.1884 17.5557L21.9559 5.7627C22.6514 5.0007 22.6244 3.83349 21.8954 3.10449C21.5311 2.73974 21.0572 2.55092 20.579 2.54004ZM20.5673 3.04004C20.9212 3.04798 21.2726 3.18776 21.5429 3.45801C22.0824 3.99801 22.1013 4.86228 21.5868 5.42578L14.203 13.5137L11.4872 10.7979L19.5751 3.41309C19.8566 3.15559 20.2133 3.0321 20.5673 3.04004ZM11.1171 11.1348L13.8651 13.8828L10.9628 17.0615L7.93837 14.0371L11.1171 11.1348ZM7.51454 14.3203L10.6796 17.4854C10.5823 17.7459 9.78574 19.8707 9.26258 20.917C9.01758 21.408 8.38569 21.8019 7.65419 21.9209C7.32588 21.9737 6.83187 21.9898 6.24794 21.8184L7.08876 20.5527C7.16526 20.4377 7.13344 20.2826 7.01844 20.2061C6.90294 20.1291 6.74874 20.1614 6.67274 20.2764L5.76844 21.6377C5.32532 21.4377 4.84802 21.1272 4.36024 20.6397C3.88294 20.1625 3.57655 19.6958 3.37587 19.2607L5.37391 18.0772C5.49291 18.0067 5.5323 17.8529 5.4618 17.7344C5.3918 17.6159 5.23853 17.5775 5.11903 17.6475L3.19325 18.7891C3.01024 18.1894 3.02462 17.6807 3.07899 17.3457C3.19749 16.6142 3.5919 15.9828 4.0829 15.7373C5.12922 15.2141 7.25401 14.4175 7.51454 14.3203Z" fill="#213235"/>
</g>
</svg>
