<svg width="25" height="25" viewBox="0 0 25 25" fill="none" xmlns="http://www.w3.org/2000/svg">
<g id="Commercial">
<path id="Vector" d="M19.0977 4.11719C18.8683 4.14594 18.6475 4.23953 18.46 4.39453L17.3799 5.27539L8.70605 8H5.25C4.285 8 3.5 8.785 3.5 9.75V14.25C3.5 15.215 4.285 16 5.25 16H6.00879C6.0532 18.1073 6.63044 19.8536 6.88672 20.5215C6.99772 20.8125 7.27244 21 7.58594 21H9.24219C9.49169 21 9.72523 20.8769 9.86523 20.6709C10.0037 20.4664 10.0324 20.207 9.94141 19.9775C9.6149 19.1555 9.08864 17.6082 9.01465 16.0967L17.3652 18.7197L18.3652 19.7197C18.6102 19.9597 18.9202 20.0898 19.2402 20.0898C19.4052 20.0898 19.5705 20.0552 19.7305 19.9902C20.2055 19.7952 20.5 19.35 20.5 18.835V13.7246C21.3469 13.6023 22 12.8808 22 12C22 11.1192 21.3469 10.3977 20.5 10.2754V5.36035C20.5 4.87535 20.2252 4.44047 19.7852 4.23047C19.5652 4.12547 19.327 4.08844 19.0977 4.11719ZM19.1592 4.61231C19.2961 4.59543 19.4378 4.61719 19.5703 4.67969C19.8403 4.80969 20 5.06535 20 5.36035V18.835C20 19.205 19.7602 19.4353 19.5352 19.5303C19.3152 19.6203 18.9797 19.6302 18.7197 19.3652L17.6748 18.3252C17.6498 18.2952 17.6152 18.2748 17.5752 18.2598L9 15.5654V8.43457L17.5752 5.74024C17.6052 5.73024 17.6352 5.71531 17.6602 5.69531L18.7754 4.78028C18.8904 4.68528 19.0223 4.62918 19.1592 4.61231ZM5.25 8.5H8.5V15.5H5.25C4.561 15.5 4 14.939 4 14.25V9.75C4 9.061 4.561 8.5 5.25 8.5ZM6.50879 16H8.51074C8.56562 17.6235 9.12889 19.289 9.47559 20.1621C9.50609 20.2386 9.49767 20.3216 9.45117 20.3897C9.40417 20.4597 9.32719 20.5 9.24219 20.5H7.58594C7.48144 20.5 7.39002 20.4383 7.35352 20.3428C7.10677 19.7005 6.5531 18.0237 6.50879 16Z" fill="#213235"/>
</g>
</svg>
