<svg width="25" height="25" viewBox="0 0 25 25" fill="none" xmlns="http://www.w3.org/2000/svg">
<g id="Foundation Makeup">
<path id="Vector" d="M10.5 3.5C10.362 3.5 10.25 3.612 10.25 3.75V4.25C10.25 4.388 10.362 4.5 10.5 4.5C10.776 4.5 11 4.724 11 5V6H10.25C9.8365 6 9.5 6.3365 9.5 6.75V8H8.75C8.061 8 7.5 8.561 7.5 9.25V16.916C7.5 19.108 8.73029 20.5972 9.25879 21.1357C9.48579 21.3672 9.80713 21.5 10.1406 21.5H14.8594C15.1924 21.5 15.5132 21.3672 15.7402 21.1357C16.2692 20.5972 17.5 19.108 17.5 16.916V9.25C17.5 8.561 16.939 8 16.25 8H15.5V6.75C15.5 6.3365 15.1635 6 14.75 6H14V4.5C14 3.9475 13.5525 3.5 13 3.5H10.5ZM10.25 6.5H14.75C14.888 6.5 15 6.612 15 6.75V8H10V6.75C10 6.612 10.112 6.5 10.25 6.5ZM8.75 8.5H16.25C16.6635 8.5 17 8.8365 17 9.25V16.916C17 18.9235 15.8698 20.2916 15.3838 20.7861C15.2503 20.9221 15.0594 21 14.8594 21H10.1406C9.94062 21 9.75021 20.9217 9.61621 20.7852C9.13021 20.2907 8 18.9235 8 16.916V9.25C8 8.8365 8.3365 8.5 8.75 8.5Z" fill="#213235"/>
</g>
</svg>
