<svg width="25" height="25" viewBox="0 0 25 25" fill="none" xmlns="http://www.w3.org/2000/svg">
<g id="New">
<path id="Vector" d="M12.5001 3.00098C12.1324 3.00098 11.7646 3.15838 11.5098 3.47363L10.5333 4.68164C10.2843 4.98914 9.87718 5.12105 9.49518 5.01855L7.99518 4.61523C7.21268 4.40473 6.43414 4.9698 6.39264 5.7793L6.31354 7.33105C6.29304 7.72605 6.04144 8.07237 5.67194 8.21387L4.22077 8.76855C3.46377 9.05855 3.16744 9.97284 3.60944 10.6523L4.45612 11.9551C4.67162 12.2866 4.67162 12.7144 4.45612 13.0459L3.60944 14.3477C3.16744 15.0272 3.46377 15.9414 4.22077 16.2314L5.67194 16.7871C6.04144 16.9286 6.29304 17.2749 6.31354 17.6699L6.39264 19.2207C6.43414 20.0302 7.21218 20.5953 7.99518 20.3848L9.49518 19.9814C9.87718 19.8784 10.2838 20.0109 10.5323 20.3184L11.5098 21.5273C12.0198 22.1578 12.9808 22.1578 13.4903 21.5273L14.4669 20.3184C14.7159 20.0109 15.1229 19.8789 15.5049 19.9814L17.0049 20.3848C17.7874 20.5953 18.566 20.0302 18.6075 19.2207L18.6866 17.6699C18.7071 17.2749 18.9587 16.9286 19.3282 16.7871L20.7794 16.2314C21.5364 15.9414 21.8327 15.0272 21.3907 14.3477L20.544 13.0459C20.3285 12.7144 20.3285 12.2866 20.544 11.9551L21.3907 10.6523C21.8327 9.97284 21.5364 9.05855 20.7794 8.76855L19.3282 8.21289C18.9587 8.07139 18.7071 7.72508 18.6866 7.33008L18.6075 5.7793C18.566 4.9698 17.7879 4.40473 17.0049 4.61523L15.5049 5.01855C15.1229 5.12155 14.7163 4.98914 14.4678 4.68164L13.4903 3.47363C13.2353 3.15838 12.8678 3.00098 12.5001 3.00098ZM12.5001 3.50781C12.7304 3.50781 12.9604 3.60719 13.1202 3.80469L14.0801 4.99121C14.4531 5.45271 15.0628 5.65009 15.6358 5.49609L17.1094 5.10059C17.5999 4.96909 18.0873 5.32308 18.1133 5.83008L18.1924 7.35352C18.2229 7.94602 18.5994 8.46573 19.1534 8.67773L20.5782 9.22266C21.0527 9.40416 21.239 9.97782 20.962 10.4033L20.1299 11.6816C19.8064 12.1791 19.8064 12.8209 20.1299 13.3184L20.962 14.5967C21.239 15.0222 21.0527 15.5958 20.5782 15.7773L19.1534 16.3223C18.5994 16.5343 18.2229 17.054 18.1924 17.6465L18.1133 19.1699C18.0868 19.6774 17.5999 20.0314 17.1094 19.8994L15.6358 19.5039C15.0628 19.3499 14.4531 19.5473 14.0801 20.0088L13.1202 21.1953C12.8007 21.5903 12.1994 21.5903 11.8799 21.1953L10.92 20.0088C10.547 19.5473 9.93732 19.3499 9.36432 19.5039L7.89069 19.8994C7.40019 20.0309 6.91278 19.6769 6.88679 19.1699L6.80768 17.6465C6.77718 17.054 6.40075 16.5343 5.84675 16.3223L4.42194 15.7773C3.94744 15.5958 3.76115 15.0222 4.03815 14.5967L4.87018 13.3184C5.19368 12.8209 5.19368 12.1791 4.87018 11.6816L4.03815 10.4033C3.76115 9.97782 3.94744 9.40416 4.42194 9.22266L5.84675 8.67773C6.40075 8.46573 6.77718 7.94602 6.80768 7.35352L6.88679 5.83008C6.91328 5.32258 7.40019 4.96859 7.89069 5.10059L9.36432 5.49609C9.93732 5.65009 10.547 5.45271 10.92 4.99121L11.8799 3.80469C12.0397 3.60719 12.2697 3.50781 12.5001 3.50781ZM7.27741 10.5C7.11041 10.5 7.00007 10.6132 7.00007 10.7822V14.2002C7.00007 14.3537 7.09182 14.4507 7.23932 14.4512C7.38732 14.4512 7.47858 14.3542 7.47858 14.2012V11.3809H7.503L9.54108 14.292C9.62708 14.4155 9.68838 14.4502 9.82038 14.4502C9.99238 14.4502 10.0948 14.3515 10.0948 14.1875V10.75C10.0948 10.5965 10.003 10.5 9.85553 10.5C9.70753 10.5 9.61628 10.597 9.61628 10.75V13.5801H9.59186L7.55671 10.6611C7.47071 10.5376 7.40641 10.5 7.27741 10.5ZM13.9083 10.5C13.7683 10.5 13.669 10.5907 13.669 10.7197C13.669 10.7627 13.6745 10.7955 13.6905 10.8545L14.6378 14.2197C14.6833 14.3782 14.7637 14.4502 14.9092 14.4502C15.0597 14.4502 15.141 14.3827 15.1895 14.2217L16.0352 11.3379H16.0616L16.9073 14.2217C16.9558 14.3832 17.0361 14.4502 17.1866 14.4502C17.3316 14.4502 17.4126 14.3782 17.4581 14.2197L18.4063 10.8545C18.4223 10.795 18.4278 10.7627 18.4278 10.7197C18.4278 10.5912 18.328 10.5 18.1885 10.5C18.0655 10.5 17.9813 10.5674 17.9493 10.6934L17.1866 13.7012H17.1651L16.3467 10.7607C16.2952 10.5782 16.2093 10.5 16.0508 10.5C15.8868 10.5 15.8006 10.578 15.7471 10.7715L14.9307 13.7012H14.9092L14.1475 10.6934C14.115 10.5699 14.0343 10.5 13.9083 10.5ZM11.087 10.5371C10.9395 10.5371 10.8458 10.6341 10.8458 10.7871V14.1631C10.8458 14.3161 10.94 14.4131 11.087 14.4131H13.0557C13.1922 14.4131 13.2862 14.3243 13.2862 14.1953C13.2862 14.0663 13.1922 13.9775 13.0557 13.9775H11.3292V12.6465H12.96C13.094 12.6465 13.1876 12.5567 13.1876 12.4307C13.1876 12.3017 13.094 12.2158 12.96 12.2158H11.3292V10.9727H13.0557C13.1922 10.9727 13.2862 10.8839 13.2862 10.7549C13.2862 10.6259 13.1922 10.5371 13.0557 10.5371H11.087Z" fill="#213235"/>
</g>
</svg>
