<svg width="25" height="25" viewBox="0 0 25 25" fill="none" xmlns="http://www.w3.org/2000/svg">
<g id="Discount">
<path id="Vector" d="M12.5001 3.00098C12.1324 3.00098 11.7646 3.15838 11.5098 3.47363L10.5333 4.68164C10.2843 4.98914 9.87718 5.12105 9.49518 5.01855L7.99518 4.61523C7.21268 4.40473 6.43414 4.9698 6.39264 5.7793L6.31354 7.33105C6.29304 7.72605 6.04144 8.07237 5.67194 8.21387L4.22077 8.76855C3.46377 9.05855 3.16744 9.97284 3.60944 10.6523L4.45612 11.9551C4.67162 12.2866 4.67162 12.7144 4.45612 13.0459L3.60944 14.3477C3.16744 15.0272 3.46377 15.9414 4.22077 16.2314L5.67194 16.7871C6.04144 16.9286 6.29304 17.2749 6.31354 17.6699L6.39264 19.2207C6.43414 20.0302 7.21218 20.5953 7.99518 20.3848L9.49518 19.9814C9.87718 19.8784 10.2838 20.0109 10.5323 20.3184L11.5098 21.5273C12.0198 22.1578 12.9808 22.1578 13.4903 21.5273L14.4669 20.3184C14.7159 20.0109 15.1229 19.8789 15.5049 19.9814L17.0049 20.3848C17.7874 20.5953 18.566 20.0302 18.6075 19.2207L18.6866 17.6699C18.7071 17.2749 18.9587 16.9286 19.3282 16.7871L20.7794 16.2314C21.5364 15.9414 21.8327 15.0272 21.3907 14.3477L20.544 13.0459C20.3285 12.7144 20.3285 12.2866 20.544 11.9551L21.3907 10.6523C21.8327 9.97284 21.5364 9.05855 20.7794 8.76855L19.3282 8.21289C18.9587 8.07139 18.7071 7.72508 18.6866 7.33008L18.6075 5.7793C18.566 4.9698 17.7879 4.40473 17.0049 4.61523L15.5049 5.01855C15.1229 5.12155 14.7163 4.98914 14.4678 4.68164L13.4903 3.47363C13.2353 3.15838 12.8678 3.00098 12.5001 3.00098ZM12.5001 3.50781C12.7304 3.50781 12.9604 3.60719 13.1202 3.80469L14.0801 4.99121C14.4531 5.45271 15.0628 5.65009 15.6358 5.49609L17.1094 5.10059C17.5999 4.96909 18.0873 5.32308 18.1133 5.83008L18.1924 7.35352C18.2229 7.94602 18.5994 8.46573 19.1534 8.67773L20.5782 9.22266C21.0527 9.40416 21.239 9.97782 20.962 10.4033L20.1299 11.6816C19.8064 12.1791 19.8064 12.8209 20.1299 13.3184L20.962 14.5967C21.239 15.0222 21.0527 15.5958 20.5782 15.7773L19.1534 16.3223C18.5994 16.5343 18.2229 17.054 18.1924 17.6465L18.1133 19.1699C18.0868 19.6774 17.5999 20.0314 17.1094 19.8994L15.6358 19.5039C15.0628 19.3499 14.4531 19.5473 14.0801 20.0088L13.1202 21.1953C12.8007 21.5903 12.1994 21.5903 11.8799 21.1953L10.92 20.0088C10.547 19.5473 9.93732 19.3499 9.36432 19.5039L7.89069 19.8994C7.40019 20.0309 6.91278 19.6769 6.88679 19.1699L6.80768 17.6465C6.77718 17.054 6.40075 16.5343 5.84675 16.3223L4.42194 15.7773C3.94744 15.5958 3.76115 15.0222 4.03815 14.5967L4.87018 13.3184C5.19368 12.8209 5.19368 12.1791 4.87018 11.6816L4.03815 10.4033C3.76115 9.97782 3.94744 9.40416 4.42194 9.22266L5.84675 8.67773C6.40075 8.46573 6.77718 7.94602 6.80768 7.35352L6.88679 5.83008C6.91328 5.32258 7.40019 4.96859 7.89069 5.10059L9.36432 5.49609C9.93732 5.65009 10.547 5.45271 10.92 4.99121L11.8799 3.80469C12.0397 3.60719 12.2697 3.50781 12.5001 3.50781ZM14.2598 8.50098C14.1624 8.49755 14.0674 8.5498 14.0235 8.64355L10.5235 16.1436C10.465 16.2686 10.5186 16.4181 10.6436 16.4766C10.6781 16.4926 10.7146 16.5 10.7501 16.5C10.8436 16.5 10.9341 16.4469 10.9766 16.3564L14.4766 8.85645C14.5351 8.73145 14.4815 8.58194 14.3565 8.52344C14.3251 8.50919 14.2923 8.50212 14.2598 8.50098ZM9.50007 9C8.67307 9 8.00007 9.785 8.00007 10.75C8.00007 11.715 8.67307 12.5 9.50007 12.5C10.3271 12.5 11.0001 11.715 11.0001 10.75C11.0001 9.785 10.3271 9 9.50007 9ZM9.50007 9.5C10.0516 9.5 10.5001 10.061 10.5001 10.75C10.5001 11.439 10.0516 12 9.50007 12C8.94857 12 8.50007 11.439 8.50007 10.75C8.50007 10.061 8.94857 9.5 9.50007 9.5ZM15.5001 12.5C14.6731 12.5 14.0001 13.285 14.0001 14.25C14.0001 15.215 14.6731 16 15.5001 16C16.3271 16 17.0001 15.215 17.0001 14.25C17.0001 13.285 16.3271 12.5 15.5001 12.5ZM15.5001 13C16.0516 13 16.5001 13.561 16.5001 14.25C16.5001 14.939 16.0516 15.5 15.5001 15.5C14.9486 15.5 14.5001 14.939 14.5001 14.25C14.5001 13.561 14.9486 13 15.5001 13Z" fill="#213235"/>
</g>
</svg>
