<svg width="36" height="35" viewBox="0 0 36 35" fill="none" xmlns="http://www.w3.org/2000/svg">
<g id="Bulleted List">
<path id="Vector" d="M28.4 25.9H13.7C13.5068 25.9 13.35 25.7432 13.35 25.55C13.35 25.3568 13.5068 25.2 13.7 25.2H28.4C28.5932 25.2 28.75 25.3568 28.75 25.55C28.75 25.7432 28.5932 25.9 28.4 25.9ZM9.85 25.55C9.85 26.1296 9.3796 26.6 8.8 26.6C8.2204 26.6 7.75 26.1296 7.75 25.55C7.75 24.9704 8.2204 24.5 8.8 24.5C9.3796 24.5 9.85 24.9704 9.85 25.55ZM28.4 17.5H13.7C13.5068 17.5 13.35 17.3432 13.35 17.15C13.35 16.9568 13.5068 16.8 13.7 16.8H28.4C28.5932 16.8 28.75 16.9568 28.75 17.15C28.75 17.3432 28.5932 17.5 28.4 17.5ZM9.85 17.15C9.85 17.7296 9.3796 18.2 8.8 18.2C8.2204 18.2 7.75 17.7296 7.75 17.15C7.75 16.5704 8.2204 16.1 8.8 16.1C9.3796 16.1 9.85 16.5704 9.85 17.15ZM28.4 9.10001H13.7C13.5068 9.10001 13.35 8.94321 13.35 8.75001C13.35 8.55681 13.5068 8.40001 13.7 8.40001H28.4C28.5932 8.40001 28.75 8.55681 28.75 8.75001C28.75 8.94321 28.5932 9.10001 28.4 9.10001ZM9.85 8.75001C9.85 9.32961 9.3796 9.80001 8.8 9.80001C8.2204 9.80001 7.75 9.32961 7.75 8.75001C7.75 8.17041 8.2204 7.70001 8.8 7.70001C9.3796 7.70001 9.85 8.17041 9.85 8.75001Z" fill="#4B6D74"/>
</g>
</svg>
