<svg data-v-0d53d8a4=""
                                            data-v-69b0227f="" xmlns="http://www.w3.org/2000/svg" viewBox="0 0 22 16.35" width="22" height="16.35"
                                            fill="#4B6D74" class="ui-button-icon ui-icon dark" data-v-20155618="">
                                            <path
                                                d="M4.81 9.79l-2.1 2.1-.07.11v-.11-2.05c0-.08 0-.1-.1-.1h-.79a.89.89 0 01-.9-.9v-7a.92.92 0 010-.22.89.89 0 01.9-.77H13.2a.89.89 0 01.9.9v.92h.85v-1a1.29 1.29 0 000-.23A1.77 1.77 0 0013.18 0H1.76a1.86 1.86 0 00-.66.12A1.75 1.75 0 000 1.7v7.14A1.57 1.57 0 000 9a1.74 1.74 0 001.64 1.5c.08 0 .1 0 .1.1v1.32a.84.84 0 00.36.7.86.86 0 001.13-.1l1.93-1.93a.29.29 0 01.13-.08v-.82h-.24a.3.3 0 00-.24.1z">
                                            </path>
                                            <path
                                                d="M22 5.22A1.41 1.41 0 0022 5a1.74 1.74 0 00-1.71-1.49H8a2.11 2.11 0 00-.35 0 1.75 1.75 0 00-1.44 1.7V12.32a1.49 1.49 0 00.15.68 1.7 1.7 0 001.61 1h8.69a.24.24 0 01.18.08L18 15.36l.77.77a.81.81 0 00.57.23.87.87 0 00.88-.87v-1.32c0-.06 0-.09.08-.1a1.68 1.68 0 001-.36 1.65 1.65 0 00.7-1.34V5.22zm-.85 7.13a.87.87 0 01-.79.86h-.87c-.08 0-.1 0-.1.11v2.11l-.09-.08-2.13-2.05a.24.24 0 00-.18-.08H8a.92.92 0 01-.84-.45.83.83 0 01-.16-.43V5.26a.88.88 0 01.83-.88h12.3a1 1 0 01.77.3.84.84 0 01.23.57q.02 3.55.02 7.1z">
                                            </path>
                                            <path
                                                d="M16.34 7.07a1.92 1.92 0 00-2.24-.21 1.93 1.93 0 00-2.24.21 1.62 1.62 0 00-.54 1.18 1.66 1.66 0 00.54 1.23l1.81 1.65a.63.63 0 00.86 0l1.86-1.69a1.6 1.6 0 000-2.37zM16 8.27a.79.79 0 01-.26.59l-1.64 1.51-1.68-1.54a.77.77 0 01-.24-.57.78.78 0 01.27-.56 1 1 0 011.38 0l.27.3.29-.26a1 1 0 011.38 0 .78.78 0 01.23.53z">
                                            </path>
                                        </svg>