<svg width="26" height="27" viewBox="0 0 26 27" fill="none" xmlns="http://www.w3.org/2000/svg">
<rect x="0.25" y="0.75" width="25.5" height="25.5" rx="12.75" stroke="#4B6D74" stroke-width="0.5"/>
<path d="M18.3301 16.2718C18.799 16.5934 18.9773 17.2051 18.7547 17.7264C18.5173 18.282 18.0275 18.9175 17.0183 19.2004C16.682 19.2946 16.2878 19.35 15.8258 19.35C12.8063 19.35 9.91317 15.7743 9.78123 15.6097C9.00875 14.6566 8.63276 14.099 7.56531 12.1309C6.54481 10.2499 7.6999 8.68786 7.90624 8.46991C8.17013 8.19143 8.5147 7.92859 8.79744 7.7851C9.6979 7.32845 10.2515 8.17613 10.2515 8.17613L11.5497 10.2506C12.1106 11.0044 11.3946 11.7362 11.3946 11.7362L11.1195 12.0191C11.1195 12.0191 10.7207 12.3887 11.1195 12.7403L13.8708 15.5693C14.0501 15.7532 14.3338 15.7692 14.5312 15.6067L15.1562 15.0929C15.5517 14.7675 16.1 14.7434 16.5213 15.032L18.3301 16.2718ZM15.8262 19.0103C17.4951 19.0103 18.1754 18.2381 18.4518 17.59C18.6102 17.2201 18.4816 16.7849 18.1466 16.555L16.3377 15.3153C16.0368 15.1089 15.6449 15.1266 15.3629 15.3588L14.7379 15.8726C14.4092 16.1432 13.9356 16.1167 13.637 15.8097L10.8857 12.9807C10.3695 12.5495 10.7293 11.9392 10.8857 11.7787L11.1609 11.4958C11.434 11.2149 11.4806 10.7688 11.2713 10.4346L9.97303 8.36008C9.85001 8.16321 9.54512 7.96667 9.20187 8.04148C8.76173 8.1377 8.5319 8.38252 8.24685 8.65862C7.96444 8.932 6.9962 10.1605 7.86127 11.8912C9.06761 14.3044 9.27198 14.3669 9.77925 15.0895C10.3652 15.7512 11.1281 16.7502 12.8318 17.8974C13.7653 18.5258 14.8129 19.0103 15.8262 19.0103Z" fill="#4B6D74"/>
</svg>
