<svg width="26" height="27" viewBox="0 0 26 27" fill="none" xmlns="http://www.w3.org/2000/svg">
<rect x="0.25" y="0.75" width="25.5" height="25.5" rx="12.75" stroke="#4B6D74" stroke-width="0.5"/>
<path d="M12.0001 13.0288L8.11083 9.53972C8.2814 9.43645 8.4817 9.37501 8.69843 9.37501H17.3014C17.5178 9.37501 17.7178 9.43622 17.8882 9.53917L13.9991 13.0289L13.9991 13.0289C13.4397 13.531 12.5595 13.531 12.0001 13.0289L12.0001 13.0288ZM8.69843 8.85001C7.79491 8.85001 7.0499 9.54565 7.0499 10.4125V15.9375C7.0499 16.8044 7.79491 17.5 8.69843 17.5H17.3014C18.2049 17.5 18.9499 16.8044 18.9499 15.9375V10.4125C18.9499 9.54565 18.2049 8.85001 17.3014 8.85001H8.69843ZM14.3699 13.4138L18.2687 9.91547C18.356 10.0636 18.4058 10.2326 18.4058 10.4125V15.9375C18.4058 16.5042 17.9158 16.975 17.3014 16.975H8.69843C8.08405 16.975 7.59402 16.5042 7.59402 15.9375V10.4125C7.59402 10.2326 7.64353 10.0636 7.7305 9.91552L11.6299 13.4138C12.0149 13.7593 12.5078 13.9314 12.9999 13.9314C13.492 13.9314 13.9849 13.7593 14.3699 13.4138Z" fill="#4B6D74" stroke="#4B6D74" stroke-width="0.2"/>
</svg>
