<svg width="41" height="41" viewBox="0 0 41 41" fill="none" xmlns="http://www.w3.org/2000/svg">
<g id="Favorite">
<rect width="41" height="41" rx="20.5" fill="#4B6D74"/>
<path id="Vector" d="M25.6749 10.5428C28.5424 10.5428 31.6287 12.5878 31.6287 17.0772C31.6287 20.6164 29.458 22.8685 27.5433 24.8556C24.7741 27.7556 20.9645 30.2785 20.8216 30.3663C20.7227 30.4266 20.6114 30.4571 20.5002 30.4571C20.3889 30.4571 20.2776 30.4266 20.1793 30.3663C20.0358 30.2785 16.2268 27.7556 13.4576 24.8556C11.5423 22.8685 9.37158 20.6164 9.37158 17.0772C9.37158 12.5878 12.4579 10.5428 15.3254 10.5428C17.8837 10.5428 19.6989 12.1634 20.5002 13.0508C21.3057 12.1596 23.1197 10.5428 25.6749 10.5428ZM26.6827 24.8562C28.6364 22.8088 31.0105 20.612 31.0105 17.0772C31.0105 12.665 27.9192 11.1652 25.6749 11.1652C23.171 11.1652 21.4461 12.8828 20.7907 13.6607C20.7135 13.7509 20.6071 13.7957 20.5002 13.7957C20.3932 13.7957 20.2869 13.7503 20.2096 13.6607C19.5542 12.8828 17.8293 11.1652 15.3254 11.1652C13.0811 11.1652 9.98984 12.665 9.98984 17.0772C9.98984 20.612 12.3639 22.8088 14.3176 24.8562C17.0627 27.7314 20.5002 29.8348 20.5002 29.8348C20.5002 29.8348 23.9376 27.7314 26.6827 24.8562Z" fill="white"/>
</g>
</svg>
