<svg width="35" height="36" viewBox="0 0 35 36" fill="none" xmlns="http://www.w3.org/2000/svg">
<g id="Favorite">
<path id="Vector" d="M23.359 4.8C26.6056 4.8 30.1 7.1002 30.1 12.15C30.1 16.1309 27.6423 18.6642 25.4744 20.8993C22.3391 24.1613 18.0257 26.9991 17.864 27.0978C17.752 27.1657 17.626 27.2 17.5 27.2C17.374 27.2 17.248 27.1657 17.1367 27.0978C16.9743 26.9991 12.6616 24.1613 9.5263 20.8993C7.3577 18.6642 4.9 16.1309 4.9 12.15C4.9 7.1002 8.3944 4.8 11.641 4.8C14.5376 4.8 16.5928 6.6228 17.5 7.621C18.4121 6.6186 20.4659 4.8 23.359 4.8ZM24.5 20.9C26.712 18.597 29.4 16.126 29.4 12.15C29.4 7.187 25.9 5.5 23.359 5.5C20.524 5.5 18.571 7.432 17.829 8.307C17.7415 8.4085 17.6211 8.4589 17.5 8.4589C17.3789 8.4589 17.2585 8.4078 17.171 8.307C16.429 7.432 14.476 5.5 11.641 5.5C9.1 5.5 5.6 7.187 5.6 12.15C5.6 16.126 8.288 18.597 10.5 20.9C13.608 24.134 17.5 26.5 17.5 26.5C17.5 26.5 21.392 24.134 24.5 20.9Z" fill="#4B6D74"/>
</g>
</svg>
