<svg width="22" height="22" viewBox="0 0 22 22" fill="none" xmlns="http://www.w3.org/2000/svg">
<g id="Frame">
<path id="Vector" d="M15.9499 13.6124V5.04154C15.9499 3.71237 14.8957 2.6582 13.5665 2.6582H5.04154C3.71237 2.6582 2.6582 3.71237 2.6582 5.04154V13.6124C2.6582 14.9415 3.71237 15.9957 5.04154 15.9957H13.6124C14.8957 15.9499 15.9499 14.8957 15.9499 13.6124ZM17.9665 6.87487V14.254C17.9665 16.3165 16.2707 18.0124 14.2082 18.0124H6.82904C6.55404 18.0124 6.41654 18.3332 6.59987 18.5165C7.0582 19.0207 7.69987 19.3415 8.47904 19.3415H14.6207C17.2332 19.3415 19.3415 17.2332 19.3415 14.6207V8.47904C19.3415 7.7457 19.0207 7.0582 18.5165 6.59987C18.2874 6.41654 17.9665 6.59987 17.9665 6.87487Z" fill="white"/>
</g>
</svg>
