<svg width="18" height="18" viewBox="0 0 18 18" fill="none" xmlns="http://www.w3.org/2000/svg">
<g id="Frame" clip-path="url(#clip0_144_3037)">
<path id="Vector" fill-rule="evenodd" clip-rule="evenodd" d="M9.61725 0.75L11.8477 4.5015H7.66275L5.67525 0.77325C5.82975 0.7635 5.9895 0.75675 6.15675 0.753L6.4125 0.75H9.61725ZM11.3625 0.75H11.586C13.881 0.75 14.937 1.3155 15.816 2.16525C16.4012 2.74729 16.8153 3.47891 17.013 4.28025L17.0655 4.5015H13.5938L11.3625 0.75ZM4.11225 1.03275L5.9625 4.5015H0.933C1.08461 3.72567 1.43758 3.00336 1.95651 2.40703C2.47543 1.8107 3.14206 1.36133 3.8895 1.104L4.11225 1.03275ZM11.4135 10.6583L8.00475 8.69025C7.90768 8.63415 7.79827 8.60286 7.68622 8.59915C7.57417 8.59543 7.46293 8.61941 7.36236 8.66895C7.26178 8.7185 7.17498 8.79208 7.10964 8.88318C7.0443 8.97429 7.00243 9.0801 6.98775 9.19125L6.98175 9.28125V13.2172C6.982 13.3291 7.00976 13.4392 7.06258 13.5379C7.11539 13.6365 7.19164 13.7206 7.28462 13.7829C7.3776 13.8451 7.48446 13.8835 7.59578 13.8948C7.7071 13.906 7.81947 13.8897 7.923 13.8472L8.00475 13.8075L11.4135 11.8395C11.5104 11.7835 11.5921 11.7044 11.6512 11.6094C11.7104 11.5143 11.7452 11.4061 11.7526 11.2944C11.76 11.1827 11.7398 11.0708 11.6937 10.9688C11.6477 10.8667 11.5772 10.7776 11.4885 10.7093L11.4135 10.6583ZM0.7635 6.0015H17.2365L17.2477 6.2715L17.25 6.41325V11.5875C17.25 13.8833 16.6837 14.9392 15.834 15.8175C14.9707 16.653 13.959 17.2095 11.8365 17.2493L11.586 17.2515H6.41325C4.11825 17.2515 3.063 16.6853 2.18325 15.8348C1.34775 14.9723 0.79275 13.9613 0.75225 11.8372L0.75 11.5875V6.41325L0.75225 6.2715L0.7635 6.0015Z" fill="white"/>
</g>
<defs>
<clipPath id="clip0_144_3037">
<rect width="18" height="18" fill="white"/>
</clipPath>
</defs>
</svg>
