<svg width="26" height="26" viewBox="0 0 26 26" fill="none" xmlns="http://www.w3.org/2000/svg">
<g id="Home Page" opacity="0.2">
<path id="Vector" d="M12.9989 3.121C12.815 3.121 12.632 3.18357 12.482 3.30889L3.73336 10.6183C3.62312 10.7109 3.60781 10.8747 3.69985 10.985C3.79293 11.0952 3.95625 11.11 4.06649 11.0175L5.19993 10.0709V18.72C5.19993 19.5816 5.89829 20.28 6.75993 20.28H10.6599C11.0905 20.28 11.4399 19.9305 11.4399 19.5V14.82C11.4399 14.6765 11.5564 14.56 11.6999 14.56H14.2999C14.4434 14.56 14.5599 14.6765 14.5599 14.82V19.5C14.5599 19.9305 14.9094 20.28 15.3399 20.28H19.2399C20.1016 20.28 20.7999 19.5816 20.7999 18.72V10.0709L21.9334 11.0185C21.9817 11.0591 22.0412 11.0784 22.0999 11.0784C22.1743 11.0784 22.2485 11.0474 22.3 10.986C22.392 10.8758 22.3767 10.7114 22.2665 10.6194L20.7999 9.39452V5.71999C20.7999 5.43295 20.567 5.19999 20.2799 5.19999H19.7599C19.4729 5.19999 19.2399 5.43295 19.2399 5.71999V8.09046L13.5169 3.30889C13.3669 3.18357 13.1829 3.121 12.9989 3.121ZM12.9989 3.64202C13.0656 3.64202 13.1325 3.66456 13.1868 3.71006L20.2799 9.63725V18.72C20.2799 19.2946 19.8145 19.76 19.2399 19.76H15.3399C15.1964 19.76 15.0799 19.6435 15.0799 19.5V14.82C15.0799 14.3894 14.7305 14.04 14.2999 14.04H11.6999C11.2694 14.04 10.9199 14.3894 10.9199 14.82V19.5C10.9199 19.6435 10.8034 19.76 10.6599 19.76H6.75993C6.18533 19.76 5.71993 19.2946 5.71993 18.72V9.63624L12.812 3.71006C12.8664 3.66456 12.9322 3.64202 12.9989 3.64202Z" fill="#213235"/>
</g>
</svg>
