<svg width="35" height="35" viewBox="0 0 35 35" fill="none" xmlns="http://www.w3.org/2000/svg">
<g id="Instagram">
<rect width="35" height="35" rx="17.5" fill="#ffffff"/>
<path id="Vector" d="M17.421 9.625C10.1907 9.625 9.625 10.1907 9.625 17.421V17.579C9.625 24.8093 10.1907 25.375 17.421 25.375H17.579C24.8093 25.375 25.375 24.8093 25.375 17.579V17.421C25.375 10.1907 24.8093 9.625 17.579 9.625H17.421ZM16.8448 10.15H18.1552C24.3639 10.15 24.85 10.6361 24.85 16.8448V18.1552C24.85 24.3639 24.3639 24.85 18.1552 24.85H16.8448C10.6361 24.85 10.15 24.3639 10.15 18.1552V16.8448C10.15 10.6361 10.6361 10.15 16.8448 10.15ZM21.9604 12.25C21.5257 12.251 21.1739 12.6043 21.175 13.0396C21.176 13.4743 21.5293 13.826 21.9646 13.825C22.3993 13.8239 22.751 13.4707 22.75 13.0354C22.7489 12.6007 22.3957 12.2489 21.9604 12.25ZM17.4897 13.3C15.1703 13.3058 13.2942 15.1908 13.3 17.5103C13.3052 19.8297 15.1908 21.7058 17.5103 21.7C19.8297 21.6947 21.7058 19.8092 21.7 17.4897C21.6947 15.1703 19.8092 13.2942 17.4897 13.3ZM17.4908 13.825C19.5204 13.8203 21.1703 15.4611 21.175 17.4908C21.1797 19.5204 19.5389 21.1703 17.5092 21.175C15.4796 21.1797 13.8297 19.5389 13.825 17.5092C13.8203 15.4796 15.4611 13.8297 17.4908 13.825Z" fill="#406E75"/>
</g>
</svg>
