<svg width="35" height="35" viewBox="0 0 35 35" fill="none" xmlns="http://www.w3.org/2000/svg">
<g id="Letter">
<rect width="35" height="35" rx="17.5" fill="white"/>
<path id="Vector" d="M11.7096 11.375C10.5603 11.375 9.625 12.2583 9.625 13.3438V20.7812C9.625 21.8667 10.5603 22.75 11.7096 22.75H23.2904C24.4397 22.75 25.375 21.8667 25.375 20.7812V13.3438C25.375 12.2583 24.4397 11.375 23.2904 11.375H11.7096ZM11.7096 11.8125H23.2904C23.6732 11.8125 24.0207 11.9432 24.2983 12.1534L18.9349 16.9659C18.1308 17.6878 16.8683 17.6878 16.0642 16.9659L10.7008 12.1543C10.9785 11.9436 11.3264 11.8125 11.7096 11.8125ZM10.3805 12.4705L15.7457 17.2838C16.2376 17.7253 16.8686 17.946 17.5 17.946C18.1314 17.946 18.7624 17.7253 19.2543 17.2838L24.6186 12.4705C24.8023 12.7187 24.9118 13.0186 24.9118 13.3438V20.7812C24.9118 21.6256 24.1845 22.3125 23.2904 22.3125H11.7096C10.8155 22.3125 10.0882 21.6256 10.0882 20.7812V13.3438C10.0882 13.0188 10.197 12.7186 10.3805 12.4705Z" fill="#406E75"/>
</g>
</svg>
