<svg width="35" height="35" viewBox="0 0 35 35" fill="none" xmlns="http://www.w3.org/2000/svg">
<g id="Phone">
<rect width="35" height="35" rx="17.5" fill="#406E75"/>
<path id="Vector" d="M24.6753 21.2312C25.3065 21.6642 25.5465 22.4877 25.2469 23.1894C24.9272 23.9373 24.268 24.7928 22.9094 25.1736C22.4566 25.3004 21.926 25.375 21.3041 25.375C17.2394 25.375 13.3448 20.5616 13.1672 20.34C12.1273 19.057 11.6212 18.3064 10.1842 15.6571C8.81045 13.1249 10.3654 11.0221 10.6432 10.7287C10.9984 10.3539 11.4622 10 11.8428 9.80687C13.055 9.19215 13.8002 10.3333 13.8002 10.3333L15.5479 13.1258C16.3028 14.1406 15.3391 15.1256 15.3391 15.1256L14.9687 15.5065C14.9687 15.5065 14.4319 16.004 14.9687 16.4773L18.6724 20.2856C18.9137 20.5332 19.2956 20.5547 19.5614 20.3359L20.4027 19.6443C20.9351 19.2062 21.6732 19.1737 22.2403 19.5624L24.6753 21.2312ZM21.3046 24.9177C23.5513 24.9177 24.467 23.8782 24.8391 23.0058C25.0523 22.5078 24.8792 21.9219 24.4282 21.6125L21.9932 19.9436C21.5881 19.6658 21.0606 19.6896 20.6809 20.0022L19.8396 20.6939C19.3971 21.0582 18.7596 21.0225 18.3577 20.6092L14.654 16.8009C13.9591 16.2205 14.4434 15.3989 14.654 15.1828L15.0244 14.802C15.3921 14.4239 15.4548 13.8234 15.173 13.3735L13.4254 10.5809C13.2598 10.3159 12.8493 10.0513 12.3873 10.152C11.7948 10.2815 11.4854 10.6111 11.1017 10.9828C10.7215 11.3508 9.41809 13.0045 10.5826 15.3344C12.2065 18.5828 12.4816 18.667 13.1645 19.6397C13.9533 20.5304 14.9803 21.8752 17.2737 23.4196C18.5304 24.2655 19.9406 24.9177 21.3046 24.9177Z" fill="white"/>
</g>
</svg>
