<svg width="46" height="46" viewBox="0 0 46 46" fill="none" xmlns="http://www.w3.org/2000/svg">
<g id="User Menu Male">
<path id="&#226;&#128;&#156;" d="M21.1898 11L17.0027 27.471L15.8476 21.9065C17.5321 21.9065 18.9278 22.4505 20.0348 23.5387C21.1417 24.6269 21.6952 26.086 21.6952 27.9161C21.6952 29.7462 21.1417 31.2301 20.0348 32.3677C18.9278 33.4559 17.5561 34 15.9198 34C14.1872 34 12.7674 33.4312 11.6604 32.2935C10.5535 31.1559 10 29.6968 10 27.9161C10 27.3226 10.0241 26.7785 10.0722 26.2839C10.1684 25.7398 10.3369 25.0968 10.5775 24.3548C10.8182 23.6129 11.1551 22.6731 11.5882 21.5355L15.4144 11H21.1898ZM36.4946 11L32.3075 27.471L31.1524 21.9065C32.8369 21.9065 34.2326 22.4505 35.3396 23.5387C36.4465 24.6269 37 26.086 37 27.9161C37 29.7462 36.4465 31.2301 35.3396 32.3677C34.2326 33.4559 32.861 34 31.2246 34C29.492 34 28.0722 33.4312 26.9652 32.2935C25.8583 31.1559 25.3048 29.6968 25.3048 27.9161C25.3048 27.3226 25.3289 26.7785 25.377 26.2839C25.4733 25.7398 25.6417 25.0968 25.8824 24.3548C26.123 23.6129 26.4599 22.6731 26.893 21.5355L30.7192 11H36.4946Z" fill="#4B6D74"/>
</g>
</svg>
