<svg width="35" height="36" viewBox="0 0 35 36" fill="none" xmlns="http://www.w3.org/2000/svg">
<g id="Search">
<path id="Vector" d="M15.5297 5C10.2757 5 6 9.45355 6 14.9262C6 20.3988 10.2757 24.8524 15.5297 24.8524C17.8515 24.8524 19.9809 23.9818 21.636 22.5389C21.8371 22.7483 28.3855 29.5699 28.5489 29.7408C28.8807 30.0864 29.4194 30.0864 29.7512 29.7408C30.0829 29.3952 30.0829 28.8341 29.7512 28.4886C29.5878 28.3177 23.0394 21.4961 22.8383 21.2866C24.2236 19.5626 25.0594 17.3446 25.0594 14.9262C25.0594 9.45355 20.7837 5 15.5297 5ZM15.5297 5.73527C20.3948 5.73527 24.3535 9.85869 24.3535 14.9262C24.3535 19.9937 20.3948 24.1171 15.5297 24.1171C10.6646 24.1171 6.7059 19.9937 6.7059 14.9262C6.7059 9.85869 10.6646 5.73527 15.5297 5.73527Z" fill="#4B6D74"/>
</g>
</svg>
