<svg width="35" height="36" viewBox="0 0 35 36" fill="none" xmlns="http://www.w3.org/2000/svg">
<g id="Shopping Cart">
<path id="Vector" d="M3.35 5C3.1568 5 3 5.1568 3 5.35C3 5.5432 3.1568 5.7 3.35 5.7H8.13242L10.6016 21.007C10.8067 22.2775 11.8894 23.2 13.176 23.2H28.55C28.7432 23.2 28.9 23.0432 28.9 22.85C28.9 22.6568 28.7432 22.5 28.55 22.5H13.176C12.2345 22.5 11.4425 21.8245 11.292 20.8949L10.9283 18.6432H28.4543C29.7304 18.6432 30.8105 17.7286 31.0205 16.4693L32.3945 8.22109C32.412 8.11959 32.3845 8.01512 32.318 7.93672C32.2508 7.85832 32.1529 7.81367 32.05 7.81367H9.18242L8.77637 5.29395C8.74907 5.12455 8.60197 5 8.43047 5H3.35ZM9.2959 8.51367H31.6371L30.3301 16.3545C30.1761 17.275 29.3874 17.9432 28.4543 17.9432H10.8162L9.2959 8.51367ZM14.9 26C13.7401 26 12.8 26.9401 12.8 28.1C12.8 29.2599 13.7401 30.2 14.9 30.2C16.0599 30.2 17 29.2599 17 28.1C17 26.9401 16.0599 26 14.9 26ZM26.1 26C24.9401 26 24 26.9401 24 28.1C24 29.2599 24.9401 30.2 26.1 30.2C27.2599 30.2 28.2 29.2599 28.2 28.1C28.2 26.9401 27.2599 26 26.1 26Z" fill="#4B6D74"/>
</g>
</svg>
