<svg width="18" height="19" viewBox="0 0 18 19" fill="none" xmlns="http://www.w3.org/2000/svg">
<path d="M9.00016 0.660156C4.11788 0.660156 0.160156 4.61788 0.160156 9.50016C0.160156 14.3824 4.11788 18.3402 9.00016 18.3402C13.8824 18.3402 17.8402 14.3824 17.8402 9.50016C17.8402 4.61788 13.8824 0.660156 9.00016 0.660156ZM9.00016 1.18016C13.5954 1.18016 17.3202 4.90492 17.3202 9.50016C17.3202 14.0954 13.5954 17.8202 9.00016 17.8202C4.40492 17.8202 0.680156 14.0954 0.680156 9.50016C0.680156 4.90492 4.40492 1.18016 9.00016 1.18016ZM12.633 6.01961C12.429 5.99601 12.1732 6.05134 11.8866 6.15469C11.3629 6.34345 4.66995 9.18552 4.28359 9.34984C3.91699 9.50584 3.57013 9.67568 3.56961 9.92164C3.56961 10.0943 3.67267 10.1915 3.95555 10.2923C4.24987 10.3974 4.99138 10.6226 5.42922 10.7433C5.85094 10.8598 6.33139 10.7579 6.60023 10.5909C6.88519 10.4136 10.1768 8.21128 10.4129 8.01836C10.649 7.82544 10.8364 8.07325 10.6434 8.26617C10.45 8.45961 8.19108 10.6519 7.89312 10.9555C7.5312 11.3242 7.78841 11.7066 8.03125 11.8595C8.30841 12.0342 10.3012 13.3702 10.6018 13.585C10.9024 13.7992 11.2067 13.8968 11.4854 13.8968C11.7641 13.8968 11.9102 13.5295 12.0491 13.1036C12.2118 12.6049 12.9741 7.63202 13.0677 6.65234C13.0958 6.35594 13.0025 6.15827 12.8189 6.07039C12.7634 6.04374 12.7011 6.02747 12.633 6.01961Z" fill="#4B6D74"/>
</svg>
