<svg width="35" height="36" viewBox="0 0 35 36" fill="none" xmlns="http://www.w3.org/2000/svg">
<g id="User Menu Male">
<path id="Vector" d="M17.4982 18.5C14.4624 18.5 11.9932 15.809 11.9932 12.5C11.9932 9.191 14.4624 6.5 17.4982 6.5C20.5339 6.5 23.0032 9.191 23.0032 12.5C23.0032 15.809 20.5339 18.5 17.4982 18.5ZM17.4982 7.5C15.0149 7.5 12.9941 9.743 12.9941 12.5C12.9941 15.257 15.0149 17.5 17.4982 17.5C19.9814 17.5 22.0023 15.257 22.0023 12.5C22.0023 9.743 19.9814 7.5 17.4982 7.5ZM26.4123 30.5H8.58412C6.49824 30.5 5.52035 28.363 6.22899 26.871C8.06365 23 12.4867 20.5 17.4982 20.5C22.5097 20.5 26.9327 23 28.7674 26.871C29.5091 28.433 28.4111 30.5 26.4123 30.5ZM17.4982 21.5C12.9431 21.5 8.7773 23.83 7.13381 27.298C6.59533 28.435 7.58222 29.5 8.58412 29.5H26.4123C27.4402 29.5 28.388 28.408 27.8626 27.298C26.2191 23.83 22.0533 21.5 17.4982 21.5Z" fill="#4B6D74"/>
</g>
</svg>
