<svg width="41" height="41" viewBox="0 0 41 41" fill="none" xmlns="http://www.w3.org/2000/svg">
<g id="Zoom In">
<rect width="41" height="41" rx="20.5" fill="#4B6D74"/>
<path id="Vector" d="M18.3385 10C13.7412 10 10 13.741 10 18.338C10 22.935 13.7412 26.676 18.3385 26.676C20.37 26.676 22.2333 25.9447 23.6815 24.7326C23.8575 24.9086 29.5874 30.6387 29.7303 30.7823C30.0206 31.0726 30.492 31.0726 30.7823 30.7823C31.0726 30.492 31.0726 30.0207 30.7823 29.7304C30.6393 29.5868 24.9095 23.8567 24.7335 23.6807C25.9457 22.2326 26.677 20.3694 26.677 18.338C26.677 13.741 22.9358 10 18.3385 10ZM18.3385 10.6176C22.5954 10.6176 26.0593 14.0813 26.0593 18.338C26.0593 22.5947 22.5954 26.0584 18.3385 26.0584C14.0815 26.0584 10.6177 22.5947 10.6177 18.338C10.6177 14.0813 14.0815 10.6176 18.3385 10.6176ZM18.3385 14.3234C18.168 14.3234 18.0297 14.4618 18.0297 14.6322V18.0292H14.6325C14.462 18.0292 14.3237 18.1675 14.3237 18.338C14.3237 18.5085 14.462 18.6468 14.6325 18.6468H18.0297V22.0438C18.0297 22.2143 18.168 22.3526 18.3385 22.3526C18.509 22.3526 18.6473 22.2143 18.6473 22.0438V18.6468H22.0445C22.215 18.6468 22.3533 18.5085 22.3533 18.338C22.3533 18.1675 22.215 18.0292 22.0445 18.0292H18.6473V14.6322C18.6473 14.4618 18.509 14.3234 18.3385 14.3234Z" fill="white"/>
</g>
</svg>
